<?xml version="1.0" encoding="utf-8" standalone="no"?>
<!DOCTYPE svg PUBLIC "-//W3C//DTD SVG 1.1//EN"
  "http://www.w3.org/Graphics/SVG/1.1/DTD/svg11.dtd">
<svg xmlns:xlink="http://www.w3.org/1999/xlink" width="425.764375pt" height="155.804586pt" viewBox="0 0 425.764375 155.804586" xmlns="http://www.w3.org/2000/svg" version="1.1">
 <metadata>
  <rdf:RDF xmlns:dc="http://purl.org/dc/elements/1.1/" xmlns:cc="http://creativecommons.org/ns#" xmlns:rdf="http://www.w3.org/1999/02/22-rdf-syntax-ns#">
   <cc:Work>
    <dc:type rdf:resource="http://purl.org/dc/dcmitype/StillImage"/>
    <dc:date>2026-10-06T00:29:36.703590</dc:date>
    <dc:format>image/svg+xml</dc:format>
    <dc:creator>
     <cc:Agent>
      <dc:title>Matplotlib v3.10.9, https://matplotlib.org/</dc:title>
     </cc:Agent>
    </dc:creator>
   </cc:Work>
  </rdf:RDF>
 </metadata>
 <defs>
  <style type="text/css">*{stroke-linejoin: round; stroke-linecap: butt}</style>
 </defs>
 <g id="figure_1">
  <g id="patch_1">
   <path d="M -0 155.804586 
L 425.764375 155.804586 
L 425.764375 0 
L -0 0 
z
" style="fill: #ffffff"/>
  </g>
  <g id="axes_1">
   <g id="patch_2">
    <path d="M 83.764375 143.28 
L 418.564375 143.28 
L 418.564375 7.2 
L 83.764375 7.2 
z
" style="fill: #ffffff"/>
   </g>
   <g id="matplotlib.axis_1">
    <g id="xtick_1">
     <g id="line2d_1">
      <defs>
       <path id="mf628822979" d="M 0 0 
L 0 3.5 
" style="stroke: #262626; stroke-width: 0.8"/>
      </defs>
      <g>
       <use xlink:href="#mf628822979" x="98.982557" y="143.28" style="fill: #262626; stroke: #262626; stroke-width: 0.8"/>
      </g>
     </g>
    </g>
    <g id="xtick_2">
     <g id="line2d_2">
      <g>
       <use xlink:href="#mf628822979" x="129.41892" y="143.28" style="fill: #262626; stroke: #262626; stroke-width: 0.8"/>
      </g>
     </g>
    </g>
    <g id="xtick_3">
     <g id="line2d_3">
      <g>
       <use xlink:href="#mf628822979" x="159.855284" y="143.28" style="fill: #262626; stroke: #262626; stroke-width: 0.8"/>
      </g>
     </g>
    </g>
    <g id="xtick_4">
     <g id="line2d_4">
      <g>
       <use xlink:href="#mf628822979" x="190.291648" y="143.28" style="fill: #262626; stroke: #262626; stroke-width: 0.8"/>
      </g>
     </g>
    </g>
    <g id="xtick_5">
     <g id="line2d_5">
      <g>
       <use xlink:href="#mf628822979" x="220.728011" y="143.28" style="fill: #262626; stroke: #262626; stroke-width: 0.8"/>
      </g>
     </g>
    </g>
    <g id="xtick_6">
     <g id="line2d_6">
      <g>
       <use xlink:href="#mf628822979" x="251.164375" y="143.28" style="fill: #262626; stroke: #262626; stroke-width: 0.8"/>
      </g>
     </g>
    </g>
    <g id="xtick_7">
     <g id="line2d_7">
      <g>
       <use xlink:href="#mf628822979" x="281.600739" y="143.28" style="fill: #262626; stroke: #262626; stroke-width: 0.8"/>
      </g>
     </g>
    </g>
    <g id="xtick_8">
     <g id="line2d_8">
      <g>
       <use xlink:href="#mf628822979" x="312.037102" y="143.28" style="fill: #262626; stroke: #262626; stroke-width: 0.8"/>
      </g>
     </g>
    </g>
    <g id="xtick_9">
     <g id="line2d_9">
      <g>
       <use xlink:href="#mf628822979" x="342.473466" y="143.28" style="fill: #262626; stroke: #262626; stroke-width: 0.8"/>
      </g>
     </g>
    </g>
    <g id="xtick_10">
     <g id="line2d_10">
      <g>
       <use xlink:href="#mf628822979" x="372.90983" y="143.28" style="fill: #262626; stroke: #262626; stroke-width: 0.8"/>
      </g>
     </g>
    </g>
    <g id="xtick_11">
     <g id="line2d_11">
      <g>
       <use xlink:href="#mf628822979" x="403.346193" y="143.28" style="fill: #262626; stroke: #262626; stroke-width: 0.8"/>
      </g>
     </g>
    </g>
   </g>
   <g id="matplotlib.axis_2">
    <g id="ytick_1">
     <g id="line2d_12">
      <defs>
       <path id="m0861dd1409" d="M 0 0 
L -3.5 0 
" style="stroke: #262626; stroke-width: 0.8"/>
      </defs>
      <g>
       <use xlink:href="#m0861dd1409" x="73.764375" y="140.374118" style="fill: #262626; stroke: #262626; stroke-width: 0.8"/>
      </g>
     </g>
     <g id="text_1">
      <!-- 0.012 -->
      <g style="fill: #262626" transform="translate(26.685 145.693024) scale(0.14 -0.14)">
       <defs>
        <path id="DejaVuSans-30" d="M 2034 4250 
Q 1547 4250 1301 3770 
Q 1056 3291 1056 2328 
Q 1056 1369 1301 889 
Q 1547 409 2034 409 
Q 2525 409 2770 889 
Q 3016 1369 3016 2328 
Q 3016 3291 2770 3770 
Q 2525 4250 2034 4250 
z
M 2034 4750 
Q 2819 4750 3233 4129 
Q 3647 3509 3647 2328 
Q 3647 1150 3233 529 
Q 2819 -91 2034 -91 
Q 1250 -91 836 529 
Q 422 1150 422 2328 
Q 422 3509 836 4129 
Q 1250 4750 2034 4750 
z
" transform="scale(0.015625)"/>
        <path id="DejaVuSans-2e" d="M 684 794 
L 1344 794 
L 1344 0 
L 684 0 
L 684 794 
z
" transform="scale(0.015625)"/>
        <path id="DejaVuSans-31" d="M 794 531 
L 1825 531 
L 1825 4091 
L 703 3866 
L 703 4441 
L 1819 4666 
L 2450 4666 
L 2450 531 
L 3481 531 
L 3481 0 
L 794 0 
L 794 531 
z
" transform="scale(0.015625)"/>
        <path id="DejaVuSans-32" d="M 1228 531 
L 3431 531 
L 3431 0 
L 469 0 
L 469 531 
Q 828 903 1448 1529 
Q 2069 2156 2228 2338 
Q 2531 2678 2651 2914 
Q 2772 3150 2772 3378 
Q 2772 3750 2511 3984 
Q 2250 4219 1831 4219 
Q 1534 4219 1204 4116 
Q 875 4013 500 3803 
L 500 4441 
Q 881 4594 1212 4672 
Q 1544 4750 1819 4750 
Q 2544 4750 2975 4387 
Q 3406 4025 3406 3419 
Q 3406 3131 3298 2873 
Q 3191 2616 2906 2266 
Q 2828 2175 2409 1742 
Q 1991 1309 1228 531 
z
" transform="scale(0.015625)"/>
       </defs>
       <use xlink:href="#DejaVuSans-30"/>
       <use xlink:href="#DejaVuSans-2e" transform="translate(63.623047 0)"/>
       <use xlink:href="#DejaVuSans-30" transform="translate(95.410156 0)"/>
       <use xlink:href="#DejaVuSans-31" transform="translate(159.033203 0)"/>
       <use xlink:href="#DejaVuSans-32" transform="translate(222.65625 0)"/>
      </g>
     </g>
    </g>
    <g id="ytick_2">
     <g id="line2d_13">
      <g>
       <use xlink:href="#m0861dd1409" x="73.764375" y="103.840289" style="fill: #262626; stroke: #262626; stroke-width: 0.8"/>
      </g>
     </g>
     <g id="text_2">
      <!-- 0.018 -->
      <g style="fill: #262626" transform="translate(26.685 109.159195) scale(0.14 -0.14)">
       <defs>
        <path id="DejaVuSans-38" d="M 2034 2216 
Q 1584 2216 1326 1975 
Q 1069 1734 1069 1313 
Q 1069 891 1326 650 
Q 1584 409 2034 409 
Q 2484 409 2743 651 
Q 3003 894 3003 1313 
Q 3003 1734 2745 1975 
Q 2488 2216 2034 2216 
z
M 1403 2484 
Q 997 2584 770 2862 
Q 544 3141 544 3541 
Q 544 4100 942 4425 
Q 1341 4750 2034 4750 
Q 2731 4750 3128 4425 
Q 3525 4100 3525 3541 
Q 3525 3141 3298 2862 
Q 3072 2584 2669 2484 
Q 3125 2378 3379 2068 
Q 3634 1759 3634 1313 
Q 3634 634 3220 271 
Q 2806 -91 2034 -91 
Q 1263 -91 848 271 
Q 434 634 434 1313 
Q 434 1759 690 2068 
Q 947 2378 1403 2484 
z
M 1172 3481 
Q 1172 3119 1398 2916 
Q 1625 2713 2034 2713 
Q 2441 2713 2670 2916 
Q 2900 3119 2900 3481 
Q 2900 3844 2670 4047 
Q 2441 4250 2034 4250 
Q 1625 4250 1398 4047 
Q 1172 3844 1172 3481 
z
" transform="scale(0.015625)"/>
       </defs>
       <use xlink:href="#DejaVuSans-30"/>
       <use xlink:href="#DejaVuSans-2e" transform="translate(63.623047 0)"/>
       <use xlink:href="#DejaVuSans-30" transform="translate(95.410156 0)"/>
       <use xlink:href="#DejaVuSans-31" transform="translate(159.033203 0)"/>
       <use xlink:href="#DejaVuSans-38" transform="translate(222.65625 0)"/>
      </g>
     </g>
    </g>
    <g id="ytick_3">
     <g id="line2d_14">
      <g>
       <use xlink:href="#m0861dd1409" x="73.764375" y="67.306461" style="fill: #262626; stroke: #262626; stroke-width: 0.8"/>
      </g>
     </g>
     <g id="text_3">
      <!-- 0.024 -->
      <g style="fill: #262626" transform="translate(26.685 72.625367) scale(0.14 -0.14)">
       <defs>
        <path id="DejaVuSans-34" d="M 2419 4116 
L 825 1625 
L 2419 1625 
L 2419 4116 
z
M 2253 4666 
L 3047 4666 
L 3047 1625 
L 3713 1625 
L 3713 1100 
L 3047 1100 
L 3047 0 
L 2419 0 
L 2419 1100 
L 313 1100 
L 313 1709 
L 2253 4666 
z
" transform="scale(0.015625)"/>
       </defs>
       <use xlink:href="#DejaVuSans-30"/>
       <use xlink:href="#DejaVuSans-2e" transform="translate(63.623047 0)"/>
       <use xlink:href="#DejaVuSans-30" transform="translate(95.410156 0)"/>
       <use xlink:href="#DejaVuSans-32" transform="translate(159.033203 0)"/>
       <use xlink:href="#DejaVuSans-34" transform="translate(222.65625 0)"/>
      </g>
     </g>
    </g>
    <g id="ytick_4">
     <g id="line2d_15">
      <g>
       <use xlink:href="#m0861dd1409" x="73.764375" y="30.772632" style="fill: #262626; stroke: #262626; stroke-width: 0.8"/>
      </g>
     </g>
     <g id="text_4">
      <!-- 0.030 -->
      <g style="fill: #262626" transform="translate(26.685 36.091539) scale(0.14 -0.14)">
       <defs>
        <path id="DejaVuSans-33" d="M 2597 2516 
Q 3050 2419 3304 2112 
Q 3559 1806 3559 1356 
Q 3559 666 3084 287 
Q 2609 -91 1734 -91 
Q 1441 -91 1130 -33 
Q 819 25 488 141 
L 488 750 
Q 750 597 1062 519 
Q 1375 441 1716 441 
Q 2309 441 2620 675 
Q 2931 909 2931 1356 
Q 2931 1769 2642 2001 
Q 2353 2234 1838 2234 
L 1294 2234 
L 1294 2753 
L 1863 2753 
Q 2328 2753 2575 2939 
Q 2822 3125 2822 3475 
Q 2822 3834 2567 4026 
Q 2313 4219 1838 4219 
Q 1578 4219 1281 4162 
Q 984 4106 628 3988 
L 628 4550 
Q 988 4650 1302 4700 
Q 1616 4750 1894 4750 
Q 2613 4750 3031 4423 
Q 3450 4097 3450 3541 
Q 3450 3153 3228 2886 
Q 3006 2619 2597 2516 
z
" transform="scale(0.015625)"/>
       </defs>
       <use xlink:href="#DejaVuSans-30"/>
       <use xlink:href="#DejaVuSans-2e" transform="translate(63.623047 0)"/>
       <use xlink:href="#DejaVuSans-30" transform="translate(95.410156 0)"/>
       <use xlink:href="#DejaVuSans-33" transform="translate(159.033203 0)"/>
       <use xlink:href="#DejaVuSans-30" transform="translate(222.65625 0)"/>
      </g>
     </g>
    </g>
    <g id="text_5">
     <!-- π -->
     <g style="fill: #262626" transform="translate(19.3575 80.05625) rotate(-90) scale(0.16 -0.16)">
      <defs>
       <path id="DejaVuSans-3c0" d="M 231 3500 
L 3584 3500 
L 3584 2925 
L 3144 2925 
L 3144 775 
Q 3144 550 3220 451 
Q 3297 353 3469 353 
Q 3516 353 3584 361 
Q 3653 369 3675 372 
L 3675 -44 
Q 3566 -84 3450 -103 
Q 3334 -122 3219 -122 
Q 2844 -122 2700 83 
Q 2556 288 2556 838 
L 2556 2925 
L 1266 2925 
L 1266 0 
L 678 0 
L 678 2925 
L 231 2925 
L 231 3500 
z
" transform="scale(0.015625)"/>
      </defs>
      <use xlink:href="#DejaVuSans-3c0"/>
     </g>
    </g>
   </g>
   <g id="LineCollection_1">
    <path d="M 98.982557 112.120718 
L 98.982557 104.921495 
" clip-path="url(#p0506219a55)" style="fill: none; stroke: #e41a1c; stroke-width: 2"/>
   </g>
   <g id="line2d_16">
    <defs>
     <path id="m67f31cee92" d="M 7 0 
L -7 -0 
" style="stroke: #e41a1c"/>
    </defs>
    <g clip-path="url(#p0506219a55)">
     <use xlink:href="#m67f31cee92" x="98.982557" y="112.120718" style="fill: #e41a1c; stroke: #e41a1c"/>
    </g>
   </g>
   <g id="line2d_17">
    <g clip-path="url(#p0506219a55)">
     <use xlink:href="#m67f31cee92" x="98.982557" y="104.921495" style="fill: #e41a1c; stroke: #e41a1c"/>
    </g>
   </g>
   <g id="LineCollection_2">
    <path d="M 129.41892 135.210458 
L 129.41892 130.807355 
" clip-path="url(#p0506219a55)" style="fill: none; stroke: #377eb8; stroke-width: 2"/>
   </g>
   <g id="line2d_18">
    <defs>
     <path id="m6946c70f99" d="M 7 0 
L -7 -0 
" style="stroke: #377eb8"/>
    </defs>
    <g clip-path="url(#p0506219a55)">
     <use xlink:href="#m6946c70f99" x="129.41892" y="135.210458" style="fill: #377eb8; stroke: #377eb8"/>
    </g>
   </g>
   <g id="line2d_19">
    <g clip-path="url(#p0506219a55)">
     <use xlink:href="#m6946c70f99" x="129.41892" y="130.807355" style="fill: #377eb8; stroke: #377eb8"/>
    </g>
   </g>
   <g id="LineCollection_3">
    <path d="M 159.855284 137.094545 
L 159.855284 132.155054 
" clip-path="url(#p0506219a55)" style="fill: none; stroke: #4daf4a; stroke-width: 2"/>
   </g>
   <g id="line2d_20">
    <defs>
     <path id="m5098310e8e" d="M 7 0 
L -7 -0 
" style="stroke: #4daf4a"/>
    </defs>
    <g clip-path="url(#p0506219a55)">
     <use xlink:href="#m5098310e8e" x="159.855284" y="137.094545" style="fill: #4daf4a; stroke: #4daf4a"/>
    </g>
   </g>
   <g id="line2d_21">
    <g clip-path="url(#p0506219a55)">
     <use xlink:href="#m5098310e8e" x="159.855284" y="132.155054" style="fill: #4daf4a; stroke: #4daf4a"/>
    </g>
   </g>
   <g id="LineCollection_4">
    <path d="M 190.291648 125.221855 
L 190.291648 120.134494 
" clip-path="url(#p0506219a55)" style="fill: none; stroke: #fdbf6f; stroke-width: 2"/>
   </g>
   <g id="line2d_22">
    <defs>
     <path id="m32c16458e6" d="M 7 0 
L -7 -0 
" style="stroke: #fdbf6f"/>
    </defs>
    <g clip-path="url(#p0506219a55)">
     <use xlink:href="#m32c16458e6" x="190.291648" y="125.221855" style="fill: #fdbf6f; stroke: #fdbf6f"/>
    </g>
   </g>
   <g id="line2d_23">
    <g clip-path="url(#p0506219a55)">
     <use xlink:href="#m32c16458e6" x="190.291648" y="120.134494" style="fill: #fdbf6f; stroke: #fdbf6f"/>
    </g>
   </g>
   <g id="LineCollection_5">
    <path d="M 220.728011 125.688781 
L 220.728011 120.655422 
" clip-path="url(#p0506219a55)" style="fill: none; stroke: #fdbf6f; stroke-width: 2"/>
   </g>
   <g id="line2d_24">
    <g clip-path="url(#p0506219a55)">
     <use xlink:href="#m32c16458e6" x="220.728011" y="125.688781" style="fill: #fdbf6f; stroke: #fdbf6f"/>
    </g>
   </g>
   <g id="line2d_25">
    <g clip-path="url(#p0506219a55)">
     <use xlink:href="#m32c16458e6" x="220.728011" y="120.655422" style="fill: #fdbf6f; stroke: #fdbf6f"/>
    </g>
   </g>
   <g id="LineCollection_6">
    <path d="M 251.164375 126.159975 
L 251.164375 120.977524 
" clip-path="url(#p0506219a55)" style="fill: none; stroke: #fdbf6f; stroke-width: 2"/>
   </g>
   <g id="line2d_26">
    <g clip-path="url(#p0506219a55)">
     <use xlink:href="#m32c16458e6" x="251.164375" y="126.159975" style="fill: #fdbf6f; stroke: #fdbf6f"/>
    </g>
   </g>
   <g id="line2d_27">
    <g clip-path="url(#p0506219a55)">
     <use xlink:href="#m32c16458e6" x="251.164375" y="120.977524" style="fill: #fdbf6f; stroke: #fdbf6f"/>
    </g>
   </g>
   <g id="LineCollection_7">
    <path d="M 281.600739 129.519641 
L 281.600739 124.146778 
" clip-path="url(#p0506219a55)" style="fill: none; stroke: #fdbf6f; stroke-width: 2"/>
   </g>
   <g id="line2d_28">
    <g clip-path="url(#p0506219a55)">
     <use xlink:href="#m32c16458e6" x="281.600739" y="129.519641" style="fill: #fdbf6f; stroke: #fdbf6f"/>
    </g>
   </g>
   <g id="line2d_29">
    <g clip-path="url(#p0506219a55)">
     <use xlink:href="#m32c16458e6" x="281.600739" y="124.146778" style="fill: #fdbf6f; stroke: #fdbf6f"/>
    </g>
   </g>
   <g id="LineCollection_8">
    <path d="M 312.037102 91.210999 
L 312.037102 82.568659 
" clip-path="url(#p0506219a55)" style="fill: none; stroke: #fb9a99; stroke-width: 2"/>
   </g>
   <g id="line2d_30">
    <defs>
     <path id="m803bde2e4e" d="M 7 0 
L -7 -0 
" style="stroke: #fb9a99"/>
    </defs>
    <g clip-path="url(#p0506219a55)">
     <use xlink:href="#m803bde2e4e" x="312.037102" y="91.210999" style="fill: #fb9a99; stroke: #fb9a99"/>
    </g>
   </g>
   <g id="line2d_31">
    <g clip-path="url(#p0506219a55)">
     <use xlink:href="#m803bde2e4e" x="312.037102" y="82.568659" style="fill: #fb9a99; stroke: #fb9a99"/>
    </g>
   </g>
   <g id="LineCollection_9">
    <path d="M 342.473466 124.958313 
L 342.473466 117.948312 
" clip-path="url(#p0506219a55)" style="fill: none; stroke: #fb9a99; stroke-width: 2"/>
   </g>
   <g id="line2d_32">
    <g clip-path="url(#p0506219a55)">
     <use xlink:href="#m803bde2e4e" x="342.473466" y="124.958313" style="fill: #fb9a99; stroke: #fb9a99"/>
    </g>
   </g>
   <g id="line2d_33">
    <g clip-path="url(#p0506219a55)">
     <use xlink:href="#m803bde2e4e" x="342.473466" y="117.948312" style="fill: #fb9a99; stroke: #fb9a99"/>
    </g>
   </g>
   <g id="LineCollection_10">
    <path d="M 372.90983 26.681679 
L 372.90983 13.385455 
" clip-path="url(#p0506219a55)" style="fill: none; stroke: #cab2d6; stroke-width: 2"/>
   </g>
   <g id="line2d_34">
    <defs>
     <path id="me723f27ba7" d="M 7 0 
L -7 -0 
" style="stroke: #cab2d6"/>
    </defs>
    <g clip-path="url(#p0506219a55)">
     <use xlink:href="#me723f27ba7" x="372.90983" y="26.681679" style="fill: #cab2d6; stroke: #cab2d6"/>
    </g>
   </g>
   <g id="line2d_35">
    <g clip-path="url(#p0506219a55)">
     <use xlink:href="#me723f27ba7" x="372.90983" y="13.385455" style="fill: #cab2d6; stroke: #cab2d6"/>
    </g>
   </g>
   <g id="LineCollection_11">
    <path d="M 403.346193 87.672303 
L 403.346193 80.472345 
" clip-path="url(#p0506219a55)" style="fill: none; stroke: #999999; stroke-width: 2"/>
   </g>
   <g id="line2d_36">
    <defs>
     <path id="md95156f1b0" d="M 7 0 
L -7 -0 
" style="stroke: #999999"/>
    </defs>
    <g clip-path="url(#p0506219a55)">
     <use xlink:href="#md95156f1b0" x="403.346193" y="87.672303" style="fill: #999999; stroke: #999999"/>
    </g>
   </g>
   <g id="line2d_37">
    <g clip-path="url(#p0506219a55)">
     <use xlink:href="#md95156f1b0" x="403.346193" y="80.472345" style="fill: #999999; stroke: #999999"/>
    </g>
   </g>
   <g id="line2d_38">
    <defs>
     <path id="m583711d9ca" d="M 0 4 
C 1.060812 4 2.078319 3.578535 2.828427 2.828427 
C 3.578535 2.078319 4 1.060812 4 0 
C 4 -1.060812 3.578535 -2.078319 2.828427 -2.828427 
C 2.078319 -3.578535 1.060812 -4 0 -4 
C -1.060812 -4 -2.078319 -3.578535 -2.828427 -2.828427 
C -3.578535 -2.078319 -4 -1.060812 -4 0 
C -4 1.060812 -3.578535 2.078319 -2.828427 2.828427 
C -2.078319 3.578535 -1.060812 4 0 4 
z
" style="stroke: #e41a1c"/>
    </defs>
    <g clip-path="url(#p0506219a55)">
     <use xlink:href="#m583711d9ca" x="98.982557" y="108.520997" style="fill: #e41a1c; stroke: #e41a1c"/>
    </g>
   </g>
   <g id="line2d_39">
    <defs>
     <path id="md3e6e71208" d="M 0 4 
C 1.060812 4 2.078319 3.578535 2.828427 2.828427 
C 3.578535 2.078319 4 1.060812 4 0 
C 4 -1.060812 3.578535 -2.078319 2.828427 -2.828427 
C 2.078319 -3.578535 1.060812 -4 0 -4 
C -1.060812 -4 -2.078319 -3.578535 -2.828427 -2.828427 
C -3.578535 -2.078319 -4 -1.060812 -4 0 
C -4 1.060812 -3.578535 2.078319 -2.828427 2.828427 
C -2.078319 3.578535 -1.060812 4 0 4 
z
" style="stroke: #377eb8"/>
    </defs>
    <g clip-path="url(#p0506219a55)">
     <use xlink:href="#md3e6e71208" x="129.41892" y="133.009077" style="fill: #377eb8; stroke: #377eb8"/>
    </g>
   </g>
   <g id="line2d_40">
    <defs>
     <path id="m65c6ac13e6" d="M 0 4 
C 1.060812 4 2.078319 3.578535 2.828427 2.828427 
C 3.578535 2.078319 4 1.060812 4 0 
C 4 -1.060812 3.578535 -2.078319 2.828427 -2.828427 
C 2.078319 -3.578535 1.060812 -4 0 -4 
C -1.060812 -4 -2.078319 -3.578535 -2.828427 -2.828427 
C -3.578535 -2.078319 -4 -1.060812 -4 0 
C -4 1.060812 -3.578535 2.078319 -2.828427 2.828427 
C -2.078319 3.578535 -1.060812 4 0 4 
z
" style="stroke: #4daf4a"/>
    </defs>
    <g clip-path="url(#p0506219a55)">
     <use xlink:href="#m65c6ac13e6" x="159.855284" y="134.624562" style="fill: #4daf4a; stroke: #4daf4a"/>
    </g>
   </g>
   <g id="line2d_41">
    <defs>
     <path id="mc5ba593da2" d="M 0 4 
C 1.060812 4 2.078319 3.578535 2.828427 2.828427 
C 3.578535 2.078319 4 1.060812 4 0 
C 4 -1.060812 3.578535 -2.078319 2.828427 -2.828427 
C 2.078319 -3.578535 1.060812 -4 0 -4 
C -1.060812 -4 -2.078319 -3.578535 -2.828427 -2.828427 
C -3.578535 -2.078319 -4 -1.060812 -4 0 
C -4 1.060812 -3.578535 2.078319 -2.828427 2.828427 
C -2.078319 3.578535 -1.060812 4 0 4 
z
" style="stroke: #fdbf6f"/>
    </defs>
    <g clip-path="url(#p0506219a55)">
     <use xlink:href="#mc5ba593da2" x="190.291648" y="122.678008" style="fill: #fdbf6f; stroke: #fdbf6f"/>
    </g>
   </g>
   <g id="line2d_42">
    <g clip-path="url(#p0506219a55)">
     <use xlink:href="#mc5ba593da2" x="220.728011" y="123.171872" style="fill: #fdbf6f; stroke: #fdbf6f"/>
    </g>
   </g>
   <g id="line2d_43">
    <g clip-path="url(#p0506219a55)">
     <use xlink:href="#mc5ba593da2" x="251.164375" y="123.568591" style="fill: #fdbf6f; stroke: #fdbf6f"/>
    </g>
   </g>
   <g id="line2d_44">
    <g clip-path="url(#p0506219a55)">
     <use xlink:href="#mc5ba593da2" x="281.600739" y="126.833192" style="fill: #fdbf6f; stroke: #fdbf6f"/>
    </g>
   </g>
   <g id="line2d_45">
    <defs>
     <path id="m43e583903d" d="M 0 4 
C 1.060812 4 2.078319 3.578535 2.828427 2.828427 
C 3.578535 2.078319 4 1.060812 4 0 
C 4 -1.060812 3.578535 -2.078319 2.828427 -2.828427 
C 2.078319 -3.578535 1.060812 -4 0 -4 
C -1.060812 -4 -2.078319 -3.578535 -2.828427 -2.828427 
C -3.578535 -2.078319 -4 -1.060812 -4 0 
C -4 1.060812 -3.578535 2.078319 -2.828427 2.828427 
C -2.078319 3.578535 -1.060812 4 0 4 
z
" style="stroke: #fb9a99"/>
    </defs>
    <g clip-path="url(#p0506219a55)">
     <use xlink:href="#m43e583903d" x="312.037102" y="86.889994" style="fill: #fb9a99; stroke: #fb9a99"/>
    </g>
   </g>
   <g id="line2d_46">
    <g clip-path="url(#p0506219a55)">
     <use xlink:href="#m43e583903d" x="342.473466" y="121.453437" style="fill: #fb9a99; stroke: #fb9a99"/>
    </g>
   </g>
   <g id="line2d_47">
    <defs>
     <path id="mc912481d2c" d="M 0 4 
C 1.060812 4 2.078319 3.578535 2.828427 2.828427 
C 3.578535 2.078319 4 1.060812 4 0 
C 4 -1.060812 3.578535 -2.078319 2.828427 -2.828427 
C 2.078319 -3.578535 1.060812 -4 0 -4 
C -1.060812 -4 -2.078319 -3.578535 -2.828427 -2.828427 
C -3.578535 -2.078319 -4 -1.060812 -4 0 
C -4 1.060812 -3.578535 2.078319 -2.828427 2.828427 
C -2.078319 3.578535 -1.060812 4 0 4 
z
" style="stroke: #cab2d6"/>
    </defs>
    <g clip-path="url(#p0506219a55)">
     <use xlink:href="#mc912481d2c" x="372.90983" y="20.066732" style="fill: #cab2d6; stroke: #cab2d6"/>
    </g>
   </g>
   <g id="line2d_48">
    <defs>
     <path id="m1c5bca3a86" d="M 0 4 
C 1.060812 4 2.078319 3.578535 2.828427 2.828427 
C 3.578535 2.078319 4 1.060812 4 0 
C 4 -1.060812 3.578535 -2.078319 2.828427 -2.828427 
C 2.078319 -3.578535 1.060812 -4 0 -4 
C -1.060812 -4 -2.078319 -3.578535 -2.828427 -2.828427 
C -3.578535 -2.078319 -4 -1.060812 -4 0 
C -4 1.060812 -3.578535 2.078319 -2.828427 2.828427 
C -2.078319 3.578535 -1.060812 4 0 4 
z
" style="stroke: #999999"/>
    </defs>
    <g clip-path="url(#p0506219a55)">
     <use xlink:href="#m1c5bca3a86" x="403.346193" y="84.098732" style="fill: #999999; stroke: #999999"/>
    </g>
   </g>
   <g id="patch_3">
    <path d="M 73.764375 143.28 
L 73.764375 7.2 
" style="fill: none; stroke: #262626; stroke-width: 0.8; stroke-linejoin: miter; stroke-linecap: square"/>
   </g>
   <g id="patch_4">
    <path d="M 83.764375 143.28 
L 418.564375 143.28 
" style="fill: none; stroke: #262626; stroke-width: 0.8; stroke-linejoin: miter; stroke-linecap: square"/>
   </g>
  </g>
 </g>
 <defs>
  <clipPath id="p0506219a55">
   <rect x="83.764375" y="7.2" width="334.8" height="136.08"/>
  </clipPath>
 </defs>
</svg>
